<svg width="77" height="76" viewBox="0 0 77 76" fill="none" xmlns="http://www.w3.org/2000/svg">
<path d="M64.5625 35.0815C64.4726 34.7009 64.29 34.3483 64.0311 34.0552C63.7721 33.7621 63.4448 33.5374 63.0781 33.4012L45.9752 26.9858L50.3274 5.21592C50.4259 4.7101 50.3573 4.18596 50.1318 3.72258C49.9063 3.2592 49.5363 2.88173 49.0774 2.64712C48.6186 2.41251 48.0959 2.33351 47.5883 2.42202C47.0806 2.51053 46.6155 2.76176 46.2631 3.13779L13.0131 38.7628C12.7431 39.0473 12.5477 39.3944 12.4445 39.7728C12.3413 40.1513 12.3334 40.5495 12.4217 40.9317C12.5099 41.314 12.6914 41.6684 12.95 41.9634C13.2087 42.2584 13.5363 42.4847 13.9038 42.6222L31.0127 49.0376L26.6724 70.7837C26.5738 71.2895 26.6424 71.8137 26.8679 72.2771C27.0934 72.7404 27.4635 73.1179 27.9223 73.3525C28.3811 73.5871 28.9038 73.6661 29.4114 73.5776C29.9191 73.4891 30.3842 73.2379 30.7366 72.8619L63.9866 37.2369C64.2517 36.9522 64.4429 36.6068 64.5434 36.231C64.6438 35.8552 64.6504 35.4605 64.5625 35.0815ZM32.9691 63.5311L36.0774 47.9808C36.1886 47.4293 36.1005 46.8562 35.8286 46.3636C35.5568 45.871 35.1189 45.4909 34.593 45.2911L18.9061 39.3981L44.0277 12.4834L40.9224 28.0337C40.8111 28.5852 40.8993 29.1583 41.1711 29.6509C41.4429 30.1435 41.8808 30.5235 42.4067 30.7234L58.0817 36.6015L32.9691 63.5311Z" fill="url(#paint0_linear_392_334)"/>
<defs>
<linearGradient id="paint0_linear_392_334" x1="12.3608" y1="2.38672" x2="68.4813" y2="5.56817" gradientUnits="userSpaceOnUse">
<stop stop-color="#CCA852"/>
<stop offset="1" stop-color="#E8AD56"/>
</linearGradient>
</defs>
</svg>
