<svg width="25" height="24" viewBox="0 0 25 24" fill="none" xmlns="http://www.w3.org/2000/svg">
<g clip-path="url(#clip0_392_398)">
<path d="M19.0195 0.00976562H5.01953C2.25853 0.00976562 0.0195312 2.24877 0.0195312 5.00977V19.0098C0.0195312 21.7708 2.25853 24.0098 5.01953 24.0098H19.0195C21.7815 24.0098 24.0195 21.7708 24.0195 19.0098V5.00977C24.0195 2.24877 21.7815 0.00976562 19.0195 0.00976562ZM8.01953 19.0098H5.01953V8.00977H8.01953V19.0098ZM6.51953 6.74177C5.55353 6.74177 4.76953 5.95177 4.76953 4.97777C4.76953 4.00377 5.55353 3.21377 6.51953 3.21377C7.48553 3.21377 8.26953 4.00377 8.26953 4.97777C8.26953 5.95177 7.48653 6.74177 6.51953 6.74177ZM20.0195 19.0098H17.0195V13.4058C17.0195 10.0378 13.0195 10.2928 13.0195 13.4058V19.0098H10.0195V8.00977H13.0195V9.77477C14.4155 7.18877 20.0195 6.99777 20.0195 12.2508V19.0098Z" fill="#2C2C2C"/>
</g>
<defs>
<clipPath id="clip0_392_398">
<rect width="24" height="24" fill="white" transform="translate(0.0195312 0.00976562)"/>
</clipPath>
</defs>
</svg>
