<svg width="24" height="24" viewBox="0 0 24 24" fill="none" xmlns="http://www.w3.org/2000/svg">
<g clip-path="url(#clip0_392_394)">
<path d="M12 2.17277C15.204 2.17277 15.584 2.18477 16.85 2.24277C20.102 2.39077 21.621 3.93377 21.769 7.16177C21.827 8.42677 21.838 8.80677 21.838 12.0108C21.838 15.2158 21.826 15.5948 21.769 16.8598C21.62 20.0848 20.105 21.6308 16.85 21.7788C15.584 21.8368 15.206 21.8488 12 21.8488C8.796 21.8488 8.416 21.8368 7.151 21.7788C3.891 21.6298 2.38 20.0798 2.232 16.8588C2.174 15.5938 2.162 15.2148 2.162 12.0098C2.162 8.80577 2.175 8.42677 2.232 7.16077C2.381 3.93377 3.896 2.38977 7.151 2.24177C8.417 2.18477 8.796 2.17277 12 2.17277ZM12 0.00976563C8.741 0.00976563 8.333 0.0237656 7.053 0.0817656C2.695 0.281766 0.273 2.69977 0.073 7.06177C0.014 8.34277 0 8.75077 0 12.0098C0 15.2688 0.014 15.6778 0.072 16.9578C0.272 21.3158 2.69 23.7378 7.052 23.9378C8.333 23.9958 8.741 24.0098 12 24.0098C15.259 24.0098 15.668 23.9958 16.948 23.9378C21.302 23.7378 23.73 21.3198 23.927 16.9578C23.986 15.6778 24 15.2688 24 12.0098C24 8.75077 23.986 8.34277 23.928 7.06277C23.732 2.70877 21.311 0.282766 16.949 0.0827656C15.668 0.0237656 15.259 0.00976563 12 0.00976563ZM12 5.84777C8.597 5.84777 5.838 8.60677 5.838 12.0098C5.838 15.4128 8.597 18.1728 12 18.1728C15.403 18.1728 18.162 15.4138 18.162 12.0098C18.162 8.60677 15.403 5.84777 12 5.84777ZM12 16.0098C9.791 16.0098 8 14.2198 8 12.0098C8 9.80077 9.791 8.00977 12 8.00977C14.209 8.00977 16 9.80077 16 12.0098C16 14.2198 14.209 16.0098 12 16.0098ZM18.406 4.16477C17.61 4.16477 16.965 4.80977 16.965 5.60477C16.965 6.39977 17.61 7.04477 18.406 7.04477C19.201 7.04477 19.845 6.39977 19.845 5.60477C19.845 4.80977 19.201 4.16477 18.406 4.16477Z" fill="#2C2C2C"/>
</g>
<defs>
<clipPath id="clip0_392_394">
<rect width="24" height="24" fill="white" transform="translate(0 0.00976562)"/>
</clipPath>
</defs>
</svg>
