<svg width="24" height="24" viewBox="0 0 24 24" fill="none" xmlns="http://www.w3.org/2000/svg">
<g clip-path="url(#clip0_392_397)">
<path d="M22.0611 3.38464C21.1434 4.03197 20.1273 4.52707 19.0519 4.85089C18.4748 4.18725 17.7077 3.71688 16.8545 3.5034C16.0013 3.28992 15.1031 3.34362 14.2814 3.65724C13.4598 3.97086 12.7542 4.52927 12.2602 5.25695C11.7662 5.98463 11.5077 6.84646 11.5194 7.72589V8.68422C9.83531 8.72789 8.1665 8.35437 6.66167 7.59694C5.15683 6.8395 3.86267 5.72166 2.89445 4.34297C2.89445 4.34297 -0.938883 12.968 7.68612 16.8013C5.71246 18.141 3.36131 18.8128 0.977783 18.718C9.60278 23.5096 20.1444 18.718 20.1444 7.69714C20.1436 7.4302 20.1179 7.16391 20.0678 6.90172C21.0459 5.93715 21.7361 4.71932 22.0611 3.38464Z" stroke="#2C2C2C" stroke-width="1.91667" stroke-linecap="round" stroke-linejoin="round"/>
</g>
<defs>
<clipPath id="clip0_392_397">
<rect width="23" height="23" fill="white" transform="translate(0.0195312 0.509766)"/>
</clipPath>
</defs>
</svg>
