<svg width="538" height="464" viewBox="0 0 538 464" fill="none" xmlns="http://www.w3.org/2000/svg">
<g filter="url(#filter0_dd_392_355)">
<path fill-rule="evenodd" clip-rule="evenodd" d="M529.78 256.289L528.157 258.715L526.536 261.115L524.918 263.49L523.303 265.84L521.69 268.167L520.08 270.469L518.471 272.748L516.864 275.005L515.259 277.239L513.655 279.45L512.053 281.64L510.451 283.809L508.851 285.957L507.251 288.084L505.652 290.19L504.053 292.276L502.454 294.343L500.856 296.39L499.257 298.418L497.658 300.427L496.059 302.418L494.46 304.39L492.859 306.344L491.258 308.28L489.656 310.198L488.054 312.099L486.45 313.982L484.844 315.849L483.238 317.699L481.63 319.532L480.02 321.349L478.408 323.149L476.795 324.934L475.18 326.702L473.562 328.455L471.943 330.192L470.321 331.914L468.697 333.621L467.071 335.312L465.442 336.989L463.81 338.65L462.175 340.297L460.538 341.93L458.898 343.548L457.255 345.151L455.608 346.741L453.959 348.316L452.306 349.877L450.65 351.424L448.99 352.957L447.327 354.477L445.66 355.983L443.99 357.475L442.316 358.954L440.638 360.419L438.956 361.871L437.271 363.31L435.581 364.735L433.887 366.147L432.189 367.546L430.487 368.932L428.781 370.305L427.07 371.665L425.355 373.012L423.636 374.346L421.912 375.667L420.183 376.976L418.45 378.271L416.712 379.554L414.969 380.824L413.222 382.081L411.47 383.325L409.713 384.557L407.951 385.776L406.184 386.983L404.412 388.176L402.635 389.357L400.852 390.526L399.065 391.681L397.273 392.824L395.475 393.954L393.672 395.072L391.864 396.177L390.051 397.269L388.232 398.348L386.408 399.415L384.578 400.469L382.743 401.51L380.903 402.538L379.057 403.554L377.205 404.556L375.348 405.546L373.486 406.523L371.617 407.487L369.744 408.437L367.864 409.375L365.979 410.3L364.089 411.211L362.192 412.11L360.29 412.995L358.383 413.867L356.469 414.725L354.55 415.57L352.626 416.402L350.695 417.22L348.759 418.025L346.817 418.816L344.87 419.594L342.916 420.357L340.957 421.107L338.993 421.843L337.022 422.566L335.046 423.274L333.065 423.968L331.077 424.648L329.084 425.314L327.086 425.965L325.081 426.602L323.072 427.225L321.056 427.833L319.036 428.426L317.009 429.005L314.977 429.569L312.94 430.119L310.897 430.653L308.849 431.172L306.796 431.676L304.737 432.165L302.673 432.638L300.604 433.096L298.529 433.539L296.45 433.966L294.365 434.377L292.275 434.773L290.181 435.153L288.081 435.516L285.977 435.864L283.868 436.195L281.754 436.51L279.635 436.809L277.512 437.091L275.384 437.356L273.252 437.605L271.115 437.837L268.975 438.052L266.829 438.25L264.68 438.43L262.527 438.594L260.37 438.74L258.209 438.868L256.044 438.979L253.875 439.073L251.703 439.148L249.528 439.205L247.349 439.245L245.167 439.266L242.981 439.269L240.793 439.254L238.602 439.22L236.408 439.167L234.211 439.096L232.012 439.006L229.81 438.896L227.607 438.768L225.401 438.621L223.193 438.454L220.983 438.268L218.771 438.062L216.558 437.837L214.344 437.592L212.129 437.327L209.912 437.042L207.694 436.737L205.476 436.411L203.257 436.066L201.038 435.7L198.818 435.313L196.599 434.906L194.379 434.478L192.16 434.03L189.942 433.56L187.724 433.07L185.507 432.558L183.292 432.025L181.077 431.471L178.864 430.895L176.653 430.298L174.444 429.679L172.237 429.039L170.033 428.376L167.831 427.692L165.632 426.986L163.436 426.258L161.243 425.508L159.054 424.736L156.869 423.942L154.688 423.125L152.511 422.286L150.338 421.424L148.171 420.54L146.008 419.634L143.851 418.704L141.7 417.753L139.554 416.778L137.415 415.781L135.282 414.761L133.156 413.718L131.036 412.652L128.925 411.563L126.82 410.452L124.724 409.317L122.635 408.16L120.555 406.979L118.484 405.776L116.422 404.549L114.369 403.3L112.326 402.027L110.293 400.732L108.27 399.414L106.257 398.072L104.256 396.708L102.266 395.321L100.287 393.911L98.3207 392.478L96.3662 391.022L94.4243 389.543L92.4952 388.042L90.5793 386.518L88.6769 384.972L86.7884 383.403L84.9141 381.811L83.0543 380.198L81.2094 378.562L79.3797 376.903L77.5656 375.223L75.7673 373.521L73.9852 371.796L72.2198 370.05L70.4712 368.283L68.7399 366.494L67.0261 364.683L65.3303 362.851L63.6528 360.998L61.9939 359.124L60.3539 357.23L58.7333 355.315L57.1322 353.379L55.5512 351.423L53.9904 349.447L52.4503 347.451L50.9312 345.435L49.4334 343.4L47.9572 341.345L46.503 339.272L45.0711 337.179L43.6619 335.068L42.2756 332.939L40.9125 330.791L39.5731 328.626L38.2575 326.442L36.9662 324.242L35.6994 322.024L34.4574 319.79L33.2406 317.539L32.0492 315.272L30.8835 312.988L29.7438 310.69L28.6305 308.375L27.5437 306.046L26.4838 303.702L25.4511 301.344L24.4457 298.971L23.468 296.585L22.5182 294.185L21.5967 291.773L20.7035 289.347L19.839 286.91L19.0035 284.46L18.197 281.999L17.42 279.526L16.6725 277.043L15.9548 274.55L15.267 272.046L14.6095 269.532L13.9824 267.01L13.3859 264.478L12.8201 261.938L12.2852 259.39L11.7814 256.834L11.3088 254.271L10.8677 251.702L10.458 249.126L10.08 246.543L9.73387 243.956L9.4196 241.363L9.13734 238.766L8.88721 236.165L8.66929 233.56L8.48368 230.951L8.33044 228.34L8.20964 225.726L8.12136 223.111L8.06563 220.494L8.0425 217.875L8.05201 215.257L8.09419 212.638L8.16906 210.019L8.27661 207.402L8.41685 204.785L8.58978 202.17L8.79538 199.558L9.03363 196.948L9.30448 194.341L9.6079 191.737L9.94383 189.138L10.3122 186.543L10.713 183.953L11.1461 181.368L11.6114 178.789L12.1089 176.216L12.6383 173.65L13.1997 171.091L13.7929 168.54L14.4178 165.997L15.0742 163.462L15.762 160.936L16.481 158.419L17.2311 155.913L18.0122 153.416L18.8239 150.93L19.6663 148.455L20.5389 145.991L21.4418 143.539L22.3746 141.1L23.3372 138.673L24.3293 136.259L25.3507 133.858L26.4012 131.472L27.4805 129.099L28.5885 126.741L29.7247 124.398L30.889 122.07L32.0811 119.758L33.3008 117.462L34.5477 115.182L35.8216 112.919L37.1222 110.673L38.4492 108.444L39.8024 106.233L41.1813 104.04L42.5856 101.866L44.0152 99.7095L45.4696 97.5723L46.9486 95.4544L48.4518 93.3558L49.9788 91.2771L51.5294 89.2184L53.1033 87.1799L54.7 85.1621L56.3192 83.165L57.9606 81.189L59.6238 79.2342L61.3085 77.301L63.0144 75.3895L64.741 73.4999L66.488 71.6325L68.255 69.7875L70.0417 67.965L71.8478 66.1652L73.6728 64.3884L75.5164 62.6347L77.3782 60.9042L79.2578 59.1971L81.1549 57.5136L83.0691 55.8539L85 54.2179L86.9473 52.606L88.9105 51.0182L90.8894 49.4546L92.8835 47.9153L94.8925 46.4005L96.9159 44.9102L98.9535 43.4445L101.005 42.0036L103.069 40.5874L105.147 39.1962L107.238 37.8298L109.34 36.4885L111.455 35.1721L113.581 33.8809L115.718 32.6148L117.866 31.3739L120.024 30.1581L122.193 28.9676L124.371 27.8023L126.559 26.6623L128.756 25.5475L130.961 24.458L133.175 23.3937L135.397 22.3547L137.627 21.3409L139.863 20.3523L142.107 19.3888L144.358 18.4506L146.614 17.5374L148.877 16.6494L151.146 15.7863L153.419 14.9483L155.698 14.1352L157.982 13.347L160.27 12.5835L162.562 11.8449L164.858 11.1309L167.157 10.4416L169.46 9.77676L171.766 9.1364L174.074 8.52043L176.384 7.92874L178.697 7.36125L181.011 6.81786L183.327 6.29849L185.644 5.80303L187.962 5.33138L190.281 4.88343L192.6 4.45909L194.92 4.05822L197.239 3.68074L199.558 3.32651L201.877 2.99543L204.195 2.68737L206.512 2.40222L208.827 2.13984L211.141 1.90012L213.453 1.68292L215.764 1.48812L218.072 1.31559L220.378 1.1652L222.681 1.0368L224.982 0.930273L227.28 0.845473L229.574 0.782267L231.865 0.740518L234.153 0.720084L236.437 0.720821L238.717 0.742592L240.993 0.785255L243.265 0.848667L245.532 0.932682L247.795 1.03716L250.053 1.16195L252.306 1.30691L254.554 1.47189L256.796 1.65676L259.034 1.86136L261.266 2.08554L263.492 2.32917L265.713 2.59209L267.927 2.87416L270.136 3.17524L272.338 3.49516L274.534 3.83381L276.724 4.19101L278.907 4.56664L281.084 4.96054L283.254 5.37257L285.417 5.80259L287.573 6.25045L289.722 6.71602L291.864 7.19914L293.998 7.69968L296.125 8.2175L298.245 8.75245L300.357 9.30441L302.462 9.87322L304.559 10.4588L306.648 11.0609L308.73 11.6794L310.803 12.3143L312.869 12.9654L314.927 13.6325L316.976 14.3156L319.018 15.0144L321.051 15.7289L323.076 16.4589L325.092 17.2043L327.1 17.9651L329.1 18.7409L331.091 19.5318L333.074 20.3377L335.048 21.1583L337.014 21.9936L338.971 22.8434L340.919 23.7077L342.859 24.5864L344.79 25.4792L346.712 26.3862L348.626 27.3072L350.53 28.242L352.426 29.1907L354.313 30.153L356.191 31.1289L358.06 32.1183L359.921 33.1211L361.772 34.1372L363.615 35.1664L365.448 36.2088L367.273 37.2641L369.088 38.3324L370.895 39.4135L372.693 40.5073L374.481 41.6138L376.261 42.7329L378.032 43.8645L379.794 45.0084L381.547 46.1648L383.291 47.3333L385.026 48.5141L386.752 49.707L388.469 50.9119L390.177 52.1289L391.877 53.3577L393.567 54.5984L395.249 55.8509L396.921 57.1151L398.585 58.3911L400.24 59.6786L401.886 60.9777L403.524 62.2884L405.152 63.6105L406.772 64.9441L408.383 66.289L409.986 67.6453L411.579 69.0129L413.165 70.3918L414.741 71.7819L416.309 73.1832L417.868 74.5957L419.419 76.0194L420.961 77.4542L422.495 78.9L424.02 80.357L425.537 81.825L427.045 83.3041L428.545 84.7943L430.037 86.2954L431.52 87.8076L432.996 89.3308L434.463 90.865L435.921 92.4102L437.372 93.9664L438.815 95.5337L440.249 97.112L441.676 98.7013L443.094 100.302L444.505 101.913L445.907 103.536L447.302 105.169L448.689 106.814L450.068 108.47L451.44 110.137L452.803 111.816L454.159 113.506L455.508 115.207L456.849 116.919L458.182 118.643L459.508 120.378L460.827 122.125L462.138 123.883L463.442 125.653L464.739 127.435L466.028 129.228L467.311 131.034L468.586 132.851L469.854 134.68L471.115 136.521L472.369 138.375L473.616 140.24L474.857 142.118L476.09 144.009L477.317 145.912L478.537 147.827L479.751 149.756L480.958 151.697L482.158 153.651L483.352 155.619L484.54 157.599L485.721 159.594L486.896 161.601L488.064 163.623L489.227 165.658L490.383 167.707L491.533 169.77L492.677 171.848L493.816 173.94L494.948 176.047L496.075 178.169L497.196 180.305L498.311 182.457L499.421 184.625L500.525 186.808L501.623 189.007L502.716 191.222L503.804 193.453L504.886 195.701L505.964 197.966L507.036 200.248L508.103 202.548L509.165 204.865L510.222 207.199L511.274 209.552L512.321 211.924L513.364 214.314L514.402 216.724L515.435 219.153L516.464 221.601L517.489 224.07L518.509 226.559L519.525 229.07L520.537 231.601L521.545 234.154L522.548 236.729L523.548 239.327L524.544 241.948L525.536 244.592L526.525 247.259L527.51 249.951L528.491 252.668L529.469 255.411L529.78 256.289Z" fill="url(#paint0_linear_392_355)"/>
</g>
<defs>
<filter id="filter0_dd_392_355" x="0.0424805" y="0.720215" width="537.738" height="462.549" filterUnits="userSpaceOnUse" color-interpolation-filters="sRGB">
<feFlood flood-opacity="0" result="BackgroundImageFix"/>
<feColorMatrix in="SourceAlpha" type="matrix" values="0 0 0 0 0 0 0 0 0 0 0 0 0 0 0 0 0 0 127 0" result="hardAlpha"/>
<feMorphology radius="4" operator="erode" in="SourceAlpha" result="effect1_dropShadow_392_355"/>
<feOffset dy="4"/>
<feGaussianBlur stdDeviation="2"/>
<feComposite in2="hardAlpha" operator="out"/>
<feColorMatrix type="matrix" values="0 0 0 0 0.0470588 0 0 0 0 0.0470588 0 0 0 0 0.0509804 0 0 0 0.05 0"/>
<feBlend mode="normal" in2="BackgroundImageFix" result="effect1_dropShadow_392_355"/>
<feColorMatrix in="SourceAlpha" type="matrix" values="0 0 0 0 0 0 0 0 0 0 0 0 0 0 0 0 0 0 127 0" result="hardAlpha"/>
<feMorphology radius="8" operator="erode" in="SourceAlpha" result="effect2_dropShadow_392_355"/>
<feOffset dy="16"/>
<feGaussianBlur stdDeviation="8"/>
<feComposite in2="hardAlpha" operator="out"/>
<feColorMatrix type="matrix" values="0 0 0 0 0.0470588 0 0 0 0 0.0470588 0 0 0 0 0.0509804 0 0 0 0.1 0"/>
<feBlend mode="normal" in2="effect1_dropShadow_392_355" result="effect2_dropShadow_392_355"/>
<feBlend mode="normal" in="SourceGraphic" in2="effect2_dropShadow_392_355" result="shape"/>
</filter>
<linearGradient id="paint0_linear_392_355" x1="36.8047" y1="-26" x2="585.945" y2="94.755" gradientUnits="userSpaceOnUse">
<stop stop-color="#CCA852"/>
<stop offset="1" stop-color="#E8AD56"/>
</linearGradient>
</defs>
</svg>
