<svg width="433" height="311" viewBox="0 0 433 311" fill="none" xmlns="http://www.w3.org/2000/svg">
<g filter="url(#filter0_dd_392_355)">
<path fill-rule="evenodd" clip-rule="evenodd" d="M424.648 172.618V172.618L423.401 174.165L422.156 175.695L420.912 177.209L419.671 178.707L418.43 180.19L417.191 181.657L415.953 183.109L414.717 184.546L413.481 185.968L412.245 187.376L411.011 188.771L409.776 190.151L408.542 191.517L407.309 192.87L406.075 194.21L404.841 195.537L403.608 196.851L402.373 198.152L401.139 199.441L399.904 200.717L398.668 201.982L397.432 203.234L396.195 204.475L394.956 205.704L393.717 206.921L392.477 208.127L391.235 209.322L389.993 210.506L388.748 211.679L387.503 212.841L386.255 213.992L385.006 215.133L383.756 216.263L382.503 217.383L381.249 218.492L379.992 219.592L378.733 220.681L377.473 221.76L376.21 222.83L374.944 223.89L373.677 224.94L372.407 225.98L371.134 227.011L369.859 228.033L368.581 229.045L367.3 230.047L366.017 231.041L364.73 232.025L363.441 233L362.149 233.966L360.854 234.923L359.555 235.872L358.254 236.811L356.949 237.741L355.641 238.663L354.33 239.576L353.015 240.48L351.697 241.375L350.375 242.262L349.05 243.14L347.721 244.009L346.389 244.87L345.053 245.723L343.713 246.567L342.369 247.402L341.022 248.229L339.671 249.048L338.315 249.858L336.956 250.659L335.593 251.453L334.226 252.238L332.855 253.014L331.479 253.783L330.1 254.543L328.716 255.294L327.328 256.037L325.936 256.772L324.54 257.499L323.139 258.217L321.734 258.927L320.324 259.628L318.91 260.322L317.492 261.006L316.069 261.683L314.642 262.351L313.21 263.011L311.774 263.662L310.333 264.305L308.887 264.939L307.437 265.565L305.983 266.183L304.523 266.792L303.059 267.392L301.591 267.984L300.117 268.568L298.639 269.143L297.156 269.709L295.669 270.267L294.176 270.816L292.679 271.356L291.177 271.887L289.671 272.41L288.159 272.924L286.643 273.429L285.122 273.925L283.597 274.413L282.066 274.891L280.531 275.361L278.991 275.821L277.446 276.272L275.896 276.715L274.342 277.148L272.782 277.571L271.218 277.986L269.65 278.391L268.076 278.787L266.498 279.174L264.915 279.551L263.327 279.919L261.735 280.277L260.138 280.625L258.536 280.964L256.93 281.293L255.319 281.613L253.703 281.922L252.083 282.222L250.458 282.512L248.829 282.791L247.196 283.061L245.558 283.32L243.915 283.57L242.268 283.809L240.617 284.038L238.962 284.256L237.302 284.464L235.638 284.662L233.97 284.849L232.298 285.025L230.622 285.191L228.941 285.346L227.257 285.49L225.569 285.624L223.877 285.746L222.181 285.857L220.482 285.957L218.778 286.046L217.072 286.124L215.361 286.19L213.647 286.246L211.93 286.289L210.21 286.321L208.486 286.342L206.759 286.351L205.029 286.348L203.296 286.333L201.56 286.307L199.821 286.268L198.08 286.218L196.335 286.155L194.589 286.081L192.839 285.994L191.088 285.894L189.334 285.783L187.578 285.659L185.82 285.522L184.06 285.373L182.298 285.211L180.535 285.036L178.77 284.849L177.003 284.649L175.235 284.435L173.466 284.209L171.696 283.97L169.925 283.717L168.153 283.452L166.38 283.173L164.607 282.881L162.834 282.575L161.06 282.256L159.286 281.923L157.512 281.577L155.738 281.217L153.965 280.843L152.192 280.456L150.419 280.055L148.648 279.64L146.878 279.211L145.108 278.768L143.34 278.31L141.574 277.839L139.809 277.354L138.046 276.854L136.286 276.34L134.527 275.812L132.771 275.27L131.017 274.713L129.267 274.142L127.519 273.556L125.775 272.956L124.034 272.341L122.296 271.712L120.563 271.068L118.833 270.409L117.108 269.736L115.387 269.048L113.671 268.346L111.96 267.629L110.254 266.897L108.553 266.15L106.858 265.388L105.169 264.612L103.486 263.821L101.809 263.015L100.139 262.195L98.4751 261.359L96.8186 260.509L95.1693 259.644L93.5276 258.764L91.8936 257.87L90.2676 256.961L88.6499 256.037L87.0407 255.098L85.4403 254.145L83.8489 253.177L82.2668 252.195L80.6942 251.198L79.1315 250.186L77.5789 249.16L76.0365 248.12L74.5049 247.065L72.984 245.996L71.4744 244.912L69.9762 243.815L68.4896 242.703L67.015 241.577L65.5526 240.437L64.1028 239.283L62.6657 238.116L61.2417 236.934L59.831 235.739L58.4339 234.531L57.0507 233.308L55.6816 232.073L54.327 230.824L52.9871 229.562L51.6621 228.287L50.3524 226.999L49.0582 225.698L47.7798 224.385L46.5174 223.059L45.2714 221.72L44.0419 220.37L42.8294 219.007L41.6339 217.632L40.4559 216.245L39.2955 214.847L38.1531 213.437L37.0288 212.016L35.923 210.583L34.8359 209.14L33.7677 207.685L32.7187 206.22L31.6892 204.745L30.6793 203.259L29.6894 201.763L28.7197 200.257L27.7704 198.742L26.8417 197.217L25.9339 195.683L25.0472 194.139L24.1819 192.587L23.338 191.026L22.516 189.457L21.7159 187.879L20.938 186.294L20.1825 184.701L19.4496 183.1L18.7395 181.492L18.0523 179.878L17.3883 178.256L16.7476 176.628L16.1304 174.993L15.537 173.353L14.9673 171.707L14.4217 170.056L13.9002 168.399L13.4031 166.737L12.9304 165.071L12.4823 163.4L12.0589 161.725L11.6604 160.047L11.2868 158.364L10.9384 156.679L10.6151 154.991L10.3171 153.299L10.0445 151.606L9.79743 149.91L9.57589 148.213L9.37999 146.513L9.20981 144.813L9.06539 143.112L8.9468 141.41L8.8541 139.707L8.78732 138.005L8.74649 136.303L8.73166 134.601L8.74284 132.9L8.78005 131.201L8.84329 129.502L8.93257 127.806L9.04789 126.111L9.18923 124.419L9.35658 122.729L9.5499 121.042L9.76917 119.359L10.0143 117.678L10.2854 116.002L10.5822 114.33L10.9048 112.662L11.2531 110.999L11.627 109.34L12.0264 107.687L12.4513 106.04L12.9015 104.398L13.377 102.762L13.8776 101.133L14.4032 99.5103L14.9538 97.8946L15.5291 96.286L16.1291 94.6849L16.7536 93.0914L17.4025 91.506L18.0756 89.9288L18.7728 88.3601L19.4938 86.8002L20.2387 85.2493L21.007 83.7077L21.7988 82.1756L22.6138 80.6532L23.4518 79.1408L24.3126 77.6386L25.1961 76.1469L26.1019 74.6659L27.03 73.1958L27.98 71.7369L28.9519 70.2892L29.9453 68.8532L30.96 67.4289L31.9958 66.0166L33.0525 64.6164L34.1298 63.2287L35.2275 61.8535L36.3453 60.491L37.483 59.1415L38.6403 57.8051L39.8169 56.482L41.0127 55.1723L42.2274 53.8763L43.4606 52.594L44.7121 51.3257L45.9817 50.0715L47.269 48.8315L48.5738 47.6059L49.8958 46.3948L51.2348 45.1983L52.5904 44.0167L53.9623 42.8499L55.3504 41.6982L56.7542 40.5616L58.1735 39.4403L59.6081 38.3343L61.0575 37.2437L62.5216 36.1688L64.0001 35.1094L65.4925 34.0658L66.9987 33.038L68.5184 32.0261L70.0513 31.0302L71.597 30.0503L73.1552 29.0865L74.7258 28.1389L76.3083 27.2075L77.9025 26.2924L79.5082 25.3936L81.1249 24.5111L82.7524 23.6451L84.3905 22.7955L86.0387 21.9624L87.6969 21.1458L89.3648 20.3456L91.042 19.5621L92.7283 18.7951L94.4233 18.0447L96.1269 17.3108L97.8387 16.5935L99.5584 15.8929L101.286 15.2088L103.021 14.5413L104.763 13.8903L106.511 13.2559L108.267 12.6381L110.028 12.0367L111.796 11.4519L113.569 10.8836L115.348 10.3316L117.132 9.79616L118.921 9.27704L120.715 8.77427L122.513 8.28781L124.316 7.8176L126.122 7.36361L127.932 6.92579L129.746 6.50409L131.563 6.09845L133.383 5.70882L135.206 5.33515L137.031 4.97738L138.859 4.63543L140.688 4.30926L142.52 3.99879L144.353 3.70395L146.187 3.42469L148.023 3.16092L149.86 2.91257L151.698 2.67957L153.536 2.46184L155.375 2.25931L157.213 2.0719L159.052 1.89951L160.891 1.74208L162.729 1.59952L164.567 1.47175L166.403 1.35867L168.239 1.26021L170.074 1.17627L171.908 1.10677L173.74 1.05161L175.57 1.01071L177.399 0.983974L179.226 0.971308L181.05 0.97262L182.872 0.987819L184.692 1.01681L186.51 1.05949L188.324 1.11578L190.136 1.18557L191.945 1.26877L193.751 1.36529L195.553 1.47501L197.352 1.59786L199.147 1.73373L200.939 1.88253L202.727 2.04415L204.511 2.21849L206.291 2.40548L208.067 2.60499L209.839 2.81694L211.607 3.04123L213.37 3.27777L215.128 3.52644L216.882 3.78716L218.631 4.05984L220.375 4.34437L222.114 4.64065L223.848 4.9486L225.577 5.26811L227.301 5.5991L229.02 5.94146L230.733 6.2951L232.44 6.65993L234.143 7.03586L235.839 7.42279L237.53 7.82064L239.216 8.2293L240.895 8.64869L242.569 9.07872L244.236 9.5193L245.898 9.97034L247.554 10.4318L249.203 10.9035L250.847 11.3854L252.484 11.8774L254.115 12.3794L255.74 12.8914L257.358 13.4132L258.97 13.9449L260.575 14.4862L262.175 15.0371L263.767 15.5976L265.353 16.1676L266.933 16.7469L268.506 17.3355L270.072 17.9334L271.632 18.5404L273.185 19.1565L274.731 19.7816L276.27 20.4157L277.803 21.0586L279.329 21.7103L280.849 22.3708L282.361 23.0399L283.867 23.7176L285.365 24.4039L286.857 25.0986L288.342 25.8017L289.821 26.5132L291.292 27.233L292.756 27.961L294.214 28.6972L295.665 29.4415L297.108 30.1938L298.545 30.9542L299.975 31.7225L301.398 32.4987L302.815 33.2828L304.224 34.0747L305.626 34.8744L307.022 35.6817L308.41 36.4968L309.792 37.3194L311.167 38.1496L312.535 38.9874L313.896 39.8327L315.25 40.6855L316.598 41.5457L317.939 42.4132L319.273 43.2882L320.6 44.1704L321.92 45.06L323.234 45.9569L324.54 46.8609L325.84 47.7722L327.134 48.6907L328.421 49.6164L329.701 50.5492L330.974 51.4891L332.241 52.4362L333.501 53.3903L334.755 54.3515L336.002 55.3198L337.242 56.2951L338.477 57.2775L339.704 58.2669L340.925 59.2633L342.14 60.2667L343.348 61.2771L344.55 62.2946L345.746 63.319L346.935 64.3505L348.118 65.3889L349.295 66.4344L350.466 67.487L351.63 68.5465L352.788 69.6131L353.941 70.6867L355.087 71.7674L356.227 72.8552L357.361 73.9501L358.489 75.0521L359.611 76.1612L360.727 77.2775L361.837 78.401L362.942 79.5317L364.04 80.6697L365.133 81.8149L366.221 82.9675L367.302 84.1274L368.378 85.2946L369.448 86.4694L370.513 87.6515L371.572 88.8412L372.626 90.0385L373.674 91.2433L374.717 92.4558L375.754 93.6761L376.786 94.9041L377.813 96.14L378.835 97.3837L379.852 98.6355L380.863 99.8952L381.869 101.163L382.87 102.439L383.867 103.723L384.858 105.016L385.844 106.317L386.826 107.627L387.802 108.945L388.774 110.272L389.742 111.607L390.704 112.952L391.662 114.305L392.616 115.668L393.565 117.04L394.509 118.421L395.449 119.811L396.385 121.211L397.316 122.621L398.243 124.04L399.166 125.47L400.085 126.91L401 128.359L401.911 129.82L402.817 131.29L403.72 132.772L404.619 134.264L405.514 135.767L406.406 137.282L407.294 138.807L408.178 140.345L409.059 141.894L409.936 143.455L410.81 145.028L411.68 146.613L412.547 148.212L413.411 149.822L414.272 151.446L415.13 153.083L415.985 154.734L416.837 156.398L417.686 158.077L418.532 159.769L419.375 161.476L420.216 163.198L421.055 164.935L421.891 166.688L422.724 168.456L423.555 170.24L424.384 172.041L424.648 172.618Z" fill="url(#paint0_linear_392_355)"/>
</g>
<defs>
<filter id="filter0_dd_392_355" x="0.731445" y="0.971191" width="431.917" height="309.379" filterUnits="userSpaceOnUse" color-interpolation-filters="sRGB">
<feFlood flood-opacity="0" result="BackgroundImageFix"/>
<feColorMatrix in="SourceAlpha" type="matrix" values="0 0 0 0 0 0 0 0 0 0 0 0 0 0 0 0 0 0 127 0" result="hardAlpha"/>
<feMorphology radius="4" operator="erode" in="SourceAlpha" result="effect1_dropShadow_392_355"/>
<feOffset dy="4"/>
<feGaussianBlur stdDeviation="2"/>
<feComposite in2="hardAlpha" operator="out"/>
<feColorMatrix type="matrix" values="0 0 0 0 0.0470588 0 0 0 0 0.0470588 0 0 0 0 0.0509804 0 0 0 0.05 0"/>
<feBlend mode="normal" in2="BackgroundImageFix" result="effect1_dropShadow_392_355"/>
<feColorMatrix in="SourceAlpha" type="matrix" values="0 0 0 0 0 0 0 0 0 0 0 0 0 0 0 0 0 0 127 0" result="hardAlpha"/>
<feMorphology radius="8" operator="erode" in="SourceAlpha" result="effect2_dropShadow_392_355"/>
<feOffset dy="16"/>
<feGaussianBlur stdDeviation="8"/>
<feComposite in2="hardAlpha" operator="out"/>
<feColorMatrix type="matrix" values="0 0 0 0 0.0470588 0 0 0 0 0.0470588 0 0 0 0 0.0509804 0 0 0 0.1 0"/>
<feBlend mode="normal" in2="effect1_dropShadow_392_355" result="effect2_dropShadow_392_355"/>
<feBlend mode="normal" in="SourceGraphic" in2="effect2_dropShadow_392_355" result="shape"/>
</filter>
<linearGradient id="paint0_linear_392_355" x1="27.167" y1="-20" x2="462.293" y2="85.4093" gradientUnits="userSpaceOnUse">
<stop stop-color="#CCA852"/>
<stop offset="1" stop-color="#E8AD56"/>
</linearGradient>
</defs>
</svg>
